<svg width="26" height="26" viewBox="0 0 26 26" fill="none" xmlns="http://www.w3.org/2000/svg">
<path fill-rule="evenodd" clip-rule="evenodd" d="M13 2.6C11.181 2.59966 9.3937 3.07643 7.81654 3.98271C6.23937 4.88899 4.92749 6.19309 4.01183 7.76483C3.09618 9.33658 2.60878 11.121 2.59828 12.94C2.58778 14.759 3.05456 16.5489 3.95201 18.1311C4.5586 17.3427 5.33837 16.7044 6.23102 16.2656C7.12367 15.8267 8.1053 15.5989 9.1 15.6H16.9C17.8947 15.5989 18.8763 15.8267 19.769 16.2656C20.6616 16.7044 21.4414 17.3427 22.048 18.1311C22.9454 16.5489 23.4122 14.759 23.4017 12.94C23.3912 11.121 22.9038 9.33658 21.9882 7.76483C21.0725 6.19309 19.7606 4.88899 18.1835 3.98271C16.6063 3.07643 14.819 2.59966 13 2.6ZM23.3259 20.8988C25.064 18.6328 26.0042 15.8558 26 13C26 5.8201 20.1799 0 13 0C5.82011 0 1.46292e-05 5.8201 1.46292e-05 13C-0.00427723 15.8558 0.935891 18.6329 2.67411 20.8988L2.66761 20.9222L3.12911 21.4591C4.34836 22.8845 5.86221 24.0287 7.56631 24.8126C9.27041 25.5965 11.1242 26.0016 13 26C15.6355 26.0048 18.2096 25.2043 20.3775 23.7055C21.3017 23.0669 22.1397 22.3119 22.8709 21.4591L23.3324 20.9222L23.3259 20.8988ZM13 5.2C11.9657 5.2 10.9737 5.61089 10.2423 6.34228C9.51089 7.07367 9.1 8.06565 9.1 9.09999C9.1 10.1343 9.51089 11.1263 10.2423 11.8577C10.9737 12.5891 11.9657 13 13 13C14.0343 13 15.0263 12.5891 15.7577 11.8577C16.4891 11.1263 16.9 10.1343 16.9 9.09999C16.9 8.06565 16.4891 7.07367 15.7577 6.34228C15.0263 5.61089 14.0343 5.2 13 5.2Z" fill="#191919"/>
</svg>
